<svg width="1200" height="1200" xmlns="http://www.w3.org/2000/svg">
  <path fill="#fff" fill-rule="evenodd" d="M200 0C89.544 0 0 89.544 0 200v800c0 110.456 89.544 200 200 200h800c110.456 0 200-89.544 200-200V200c0-110.456-89.544-200-200-200Z"/>
  <path fill="#0369a1" fill-rule="evenodd" d="M704.084 159.03c0 2.165-2.783 8.272-8.35 18.323-5.566 10.05-12.215 21.029-19.946 32.935-7.731 11.906-15.153 22.265-22.266 31.079-7.112 8.813-12.06 13.22-14.843 13.22-1.237 0-6.34-2.938-15.308-8.814-8.968-5.875-18.941-12.833-29.92-20.874-10.978-8.04-20.641-15.54-28.991-22.497-8.35-6.958-12.524-11.52-12.524-13.684 0-2.783 2.937-9.2 8.813-19.25 5.876-10.051 12.756-21.03 20.642-32.935 7.886-11.906 15.23-22.266 22.034-31.08 6.803-8.813 11.287-13.22 13.452-13.22 2.474 0 8.272 3.016 17.395 9.046 9.123 6.03 19.096 13.143 29.92 21.338 10.823 8.195 20.178 15.771 28.063 22.73 7.886 6.957 11.829 11.519 11.829 13.683Zm224.512 838.672c0 2.165-7.267 7.267-21.802 15.308-14.535 8.04-33.63 17.317-57.288 27.832-23.657 10.514-49.17 20.72-76.538 30.615-27.368 9.896-54.195 18.168-80.48 24.817-26.287 6.649-49.17 9.973-68.653 9.973-43.295 0-85.893-5.566-127.795-16.7-41.903-11.132-79.94-28.45-114.112-51.952-34.171-23.503-61.385-53.809-81.64-90.918-20.256-37.11-30.384-81.795-30.384-134.058 0-41.439 7.345-80.094 22.034-115.967 14.69-35.872 34.403-68.961 59.143-99.267 24.74-30.306 52.726-57.52 83.96-81.64 31.234-24.122 63.24-44.996 96.02-62.623-22.574-7.113-43.448-11.983-62.622-14.612-19.173-2.628-36.645-3.943-52.417-3.943-26.285 0-49.556 2.706-69.812 8.118-20.255 5.412-37.186 10.282-50.793 14.612 0-1.546.696-7.113 2.087-16.7 1.392-9.586 3.093-20.487 5.103-32.702a2048.529 2048.529 0 0 1 5.798-33.63c1.856-10.205 3.093-16.7 3.711-19.483.619-3.402 5.644-7.73 15.076-12.988 9.432-5.257 21.26-10.437 35.486-15.54 14.225-5.102 29.069-9.432 44.531-12.988 15.462-3.556 29.533-5.334 42.212-5.334 28.76 0 53.113 1.546 73.059 4.638 19.946 3.093 38.655 6.572 56.128 10.437 17.472 3.866 36.259 7.345 56.36 10.437 20.1 3.093 44.686 4.639 73.755 4.639 13.916 0 32.006-.696 54.272-2.087 22.266-1.392 45.15-2.088 68.652-2.088 7.113 0 12.911.387 17.395 1.16 4.485.773 6.727 1.469 6.727 2.087 0 1.237-1.856 6.34-5.567 15.308-3.71 8.968-8.118 19.018-13.22 30.151-5.103 11.133-9.741 20.874-13.916 29.224-4.175 8.35-6.726 12.524-7.654 12.524-30.925 4.639-56.746 9.2-77.466 13.684-20.72 4.484-38.655 9.046-53.808 13.684a3932.847 3932.847 0 0 0-44.532 13.916c-39.274 12.37-77.31 28.296-114.11 47.779-36.801 19.482-69.813 41.98-99.037 67.492-29.223 25.513-52.416 53.886-69.58 85.12-17.163 31.234-25.744 64.787-25.744 100.66 0 78.857 36.954 135.99 110.864 171.398 73.91 35.409 178.588 53.113 314.038 53.113 45.15 0 82.8-2.551 112.952-7.654 30.151-5.102 47.7-7.654 52.649-7.654 1.237 0 2.706 3.402 4.406 10.205 1.701 6.804 2.552 10.67 2.552 11.597Z"/>
</svg>
